<svg width="456" height="136" style="max-width: 300px; height: auto;" viewBox="0 0 456 136" fill="none" xmlns="http://www.w3.org/2000/svg">
<g filter="url(#filter0_d)">
<path d="M243.929 38.3219C245.072 38.1995 245.705 37.5462 245.827 36.3623V33.974H251.339V36.3011C251.379 37.6075 251.951 38.2811 253.053 38.3219H271.792V51.3659H266.281V45.3645C266.158 44.058 265.526 43.3436 264.382 43.2211H232.722C231.62 43.3844 230.987 44.0376 230.823 45.1807V51.1822H225.312V38.3219H243.929ZM243.132 73.412C242.316 82.5162 236.702 88.1706 226.292 90.3753L224.822 87.3745C232.865 83.7818 237.131 78.9235 237.621 72.7996V61.7153C237.539 60.4089 236.886 59.6944 235.661 59.5719H224.761V54.6728H235.539C236.764 54.4687 237.458 53.7746 237.621 52.5907V46.283H243.132V52.8356C243.377 53.9379 244.133 54.5503 245.398 54.6728H253.604C254.584 54.6728 255.074 54.1012 255.074 52.9581V49.59H260.586V53.0194C260.626 54.0808 261.198 54.632 262.3 54.6728H272.344V59.5719H260.524C259.218 59.8577 258.442 60.8171 258.197 62.4502V67.6555C258.197 69.0844 258.932 69.4519 260.402 68.7578L269.894 64.2261L272.16 69.2477L259.361 75.4329C258.585 75.8003 258.197 76.474 258.197 77.4538V82.6591C258.197 84.3738 258.81 85.2107 260.035 85.1699H264.505C265.893 85.0883 266.608 84.2513 266.648 82.6591V77.9437H272.037V84.7412C271.915 88.0073 270.649 89.7833 268.241 90.0691H256.176C254.053 89.7833 252.89 87.9665 252.686 84.6188V80.0258C252.645 78.9643 252.135 78.5969 251.155 78.9235L249.011 79.9034L246.807 74.4531L250.849 72.7384C252.155 72.2485 252.767 71.3503 252.686 70.0438V62.0215C252.563 60.4701 251.747 59.6536 250.236 59.5719H245.092C243.949 59.7761 243.296 60.5518 243.132 61.899V73.412Z" fill="url(#paint0_linear)"/>
<path d="M285.204 40.3428H290.593V46.1606C290.552 46.9771 290.838 47.3445 291.45 47.2629H292.43C293.042 47.2629 293.328 46.9363 293.287 46.283V34.0964H298.799V45.6094C298.758 46.7525 299.37 47.3037 300.636 47.2629H302.412V52.162H300.697C299.473 52.162 298.84 52.8765 298.799 54.3054V62.7564C298.799 63.4912 298.881 63.9199 299.044 64.0424C299.166 64.2057 299.432 64.1036 299.84 63.7362L301.8 62.0828L305.229 66.0021L299.595 71.0849C299.105 71.5748 298.84 72.473 298.799 73.7794V90.8652H293.287V79.5359C293.287 78.801 293.165 78.352 292.92 78.1887C292.675 78.0253 292.328 78.1682 291.879 78.6173L289.491 80.8832L285.02 76.1678L291.511 70.6562C292.655 69.7172 293.247 68.4108 293.287 66.7369V53.2643C293.369 52.4478 293.002 52.0803 292.185 52.162H291.573C290.879 52.1212 290.552 52.407 290.593 53.0194V60.3681H285.204V40.3428ZM304.065 34.5251H309.577V38.3832C309.495 39.6488 310.23 40.2408 311.782 40.1591H333.705V76.1678C333.746 83.7206 328.969 88.6401 319.375 90.9264L317.416 87.8032C324.846 84.5779 328.439 79.8625 328.194 73.657V46.2218C328.235 45.4053 327.928 45.0174 327.275 45.0583H326.724C325.989 44.9766 325.642 45.4053 325.683 46.3443V67.2881C325.315 75.984 317.824 82.2509 303.208 86.0885L301.187 82.6591C313.517 78.6173 319.845 72.7792 320.171 65.1447V46.0381C320.171 45.3849 319.845 45.0583 319.192 45.0583H318.64C317.906 45.0174 317.559 45.3645 317.599 46.0993V58.8983C317.477 66.0429 312.659 70.8604 303.147 73.3508L301.31 70.35C308.577 67.5739 312.169 63.3279 312.088 57.6123V46.2218C312.129 45.4053 311.802 45.0174 311.108 45.0583H310.434C309.863 45.0174 309.577 45.4461 309.577 46.3443V52.5294C309.414 55.7547 306.964 58.2859 302.228 60.1231L299.84 57.3673C302.657 55.0402 304.065 52.4274 304.065 49.5287V34.5251Z" fill="url(#paint1_linear)"/>
<path d="M358.323 77.1476C359.385 77.1476 359.916 76.3311 359.916 74.698V62.5727C359.875 61.2254 359.364 60.5314 358.385 60.4905H356.425C355.323 60.613 354.731 61.3683 354.649 62.7564V74.6368C354.69 76.2698 355.261 77.1068 356.364 77.1476H358.323ZM365.305 81.8018H349.26V60.6742C349.219 60.266 348.974 60.1231 348.525 60.2456L347.545 60.9192L345.341 57.5511C349.872 54.6932 353.73 49.6512 356.915 42.425C357.201 41.486 356.772 40.9756 355.629 40.894H347.79V36.2398H366.897V40.894H365.121C364.345 40.9348 363.733 41.3227 363.284 42.0575L357.099 53.8767C356.609 54.979 356.997 55.5914 358.262 55.7139H365.305V81.8018ZM394.944 56.5712V61.3479H392.189C390.637 61.4295 389.821 62.2869 389.739 63.9199V90.6814H384.473V63.7974C384.432 62.2052 383.697 61.3887 382.268 61.3479H379.451C378.389 61.4295 377.818 62.2461 377.736 63.7974V73.2895C377.736 82.4346 373.674 88.2931 365.55 90.8652L363.651 87.6807C369.734 84.6188 372.674 79.638 372.47 72.7384V64.0424C372.47 62.2461 371.531 61.3479 369.653 61.3479H366.529V56.5712H370.265C371.653 56.5304 372.388 55.7955 372.47 54.3666V42.1188C372.347 41.0165 371.633 40.3632 370.326 40.1591H368.857V35.3825H393.475V40.1591H391.699C390.474 40.2816 389.821 41.0369 389.739 42.425V54.3054C389.902 55.6935 390.739 56.4487 392.25 56.5712H394.944ZM384.473 53.693V42.425C384.432 40.9961 383.799 40.2408 382.574 40.1591H379.696C378.471 40.3632 377.818 41.2206 377.736 42.7312V53.9992C377.859 55.5097 378.492 56.3671 379.635 56.5712H382.942C383.921 56.4487 384.432 55.4893 384.473 53.693Z" fill="url(#paint2_linear)"/>
<path d="M424.523 63.1238V57.7348C424.441 56.6325 423.645 56.0609 422.135 56.0201H418.889C417.338 56.0609 416.541 56.7141 416.501 57.9797V63.3688C416.582 64.6752 417.378 65.3693 418.889 65.4509H422.257C423.686 65.3693 424.441 64.5936 424.523 63.1238ZM429.79 51.2434V70.2276H419.195C417.644 70.4317 416.746 71.3095 416.501 72.8608V79.1072C416.296 84.4963 414.031 88.1911 409.703 90.1915L407.56 87.6195C409.968 85.864 411.193 83.0674 411.234 79.2297V45.5482C411.193 44.3234 410.642 43.9559 409.581 44.4459L407.927 39.4243L428.136 33.729L429.728 38.4444L418.766 42.18C417.256 42.7516 416.501 43.6702 416.501 44.9358V48.8551C416.541 50.4065 417.358 51.2026 418.95 51.2434H429.79ZM453.673 37.832V42.6087H439.098C437.71 42.6903 436.955 43.5681 436.832 45.242V54.7953C436.873 56.51 437.689 57.3877 439.282 57.4286H456L455.939 62.2052H452.815C451.387 62.2869 450.611 62.9197 450.488 64.1036V90.9264H445.099V64.2874C444.854 63.1034 443.956 62.4094 442.405 62.2052H439.527C437.853 62.3277 436.955 63.2055 436.832 64.8385V77.8825C436.546 85.2312 433.199 89.5791 426.789 90.9264L425.074 87.9869C429.483 85.5782 431.647 82.2509 431.565 78.0049V37.832H453.673Z" fill="url(#paint3_linear)"/>
<path d="M243.929 38.3219C245.072 38.1995 245.705 37.5462 245.827 36.3623V33.974H251.339V36.3011C251.379 37.6075 251.951 38.2811 253.053 38.3219H271.792V51.3659H266.281V45.3645C266.158 44.058 265.526 43.3436 264.382 43.2211H232.722C231.62 43.3844 230.987 44.0376 230.823 45.1807V51.1822H225.312V38.3219H243.929ZM243.132 73.412C242.316 82.5162 236.702 88.1706 226.292 90.3753L224.822 87.3745C232.865 83.7818 237.131 78.9235 237.621 72.7996V61.7153C237.539 60.4089 236.886 59.6944 235.661 59.5719H224.761V54.6728H235.539C236.764 54.4687 237.458 53.7746 237.621 52.5907V46.283H243.132V52.8356C243.377 53.9379 244.133 54.5503 245.398 54.6728H253.604C254.584 54.6728 255.074 54.1012 255.074 52.9581V49.59H260.586V53.0194C260.626 54.0808 261.198 54.632 262.3 54.6728H272.344V59.5719H260.524C259.218 59.8577 258.442 60.8171 258.197 62.4502V67.6555C258.197 69.0844 258.932 69.4519 260.402 68.7578L269.894 64.2261L272.16 69.2477L259.361 75.4329C258.585 75.8003 258.197 76.474 258.197 77.4538V82.6591C258.197 84.3738 258.81 85.2107 260.035 85.1699H264.505C265.893 85.0883 266.608 84.2513 266.648 82.6591V77.9437H272.037V84.7412C271.915 88.0073 270.649 89.7833 268.241 90.0691H256.176C254.053 89.7833 252.89 87.9665 252.686 84.6188V80.0258C252.645 78.9643 252.135 78.5969 251.155 78.9235L249.011 79.9034L246.807 74.4531L250.849 72.7384C252.155 72.2485 252.767 71.3503 252.686 70.0438V62.0215C252.563 60.4701 251.747 59.6536 250.236 59.5719H245.092C243.949 59.7761 243.296 60.5518 243.132 61.899V73.412Z" stroke="white" stroke-width="1.5"/>
<path d="M285.204 40.3428H290.593V46.1606C290.552 46.9771 290.838 47.3445 291.45 47.2629H292.43C293.042 47.2629 293.328 46.9363 293.287 46.283V34.0964H298.799V45.6094C298.758 46.7525 299.37 47.3037 300.636 47.2629H302.412V52.162H300.697C299.473 52.162 298.84 52.8765 298.799 54.3054V62.7564C298.799 63.4912 298.881 63.9199 299.044 64.0424C299.166 64.2057 299.432 64.1036 299.84 63.7362L301.8 62.0828L305.229 66.0021L299.595 71.0849C299.105 71.5748 298.84 72.473 298.799 73.7794V90.8652H293.287V79.5359C293.287 78.801 293.165 78.352 292.92 78.1887C292.675 78.0253 292.328 78.1682 291.879 78.6173L289.491 80.8832L285.02 76.1678L291.511 70.6562C292.655 69.7172 293.247 68.4108 293.287 66.7369V53.2643C293.369 52.4478 293.002 52.0803 292.185 52.162H291.573C290.879 52.1212 290.552 52.407 290.593 53.0194V60.3681H285.204V40.3428ZM304.065 34.5251H309.577V38.3832C309.495 39.6488 310.23 40.2408 311.782 40.1591H333.705V76.1678C333.746 83.7206 328.969 88.6401 319.375 90.9264L317.416 87.8032C324.846 84.5779 328.439 79.8625 328.194 73.657V46.2218C328.235 45.4053 327.928 45.0174 327.275 45.0583H326.724C325.989 44.9766 325.642 45.4053 325.683 46.3443V67.2881C325.315 75.984 317.824 82.2509 303.208 86.0885L301.187 82.6591C313.517 78.6173 319.845 72.7792 320.171 65.1447V46.0381C320.171 45.3849 319.845 45.0583 319.192 45.0583H318.64C317.906 45.0174 317.559 45.3645 317.599 46.0993V58.8983C317.477 66.0429 312.659 70.8604 303.147 73.3508L301.31 70.35C308.577 67.5739 312.169 63.3279 312.088 57.6123V46.2218C312.129 45.4053 311.802 45.0174 311.108 45.0583H310.434C309.863 45.0174 309.577 45.4461 309.577 46.3443V52.5294C309.414 55.7547 306.964 58.2859 302.228 60.1231L299.84 57.3673C302.657 55.0402 304.065 52.4274 304.065 49.5287V34.5251Z" stroke="white" stroke-width="1.5"/>
<path d="M358.323 77.1476C359.385 77.1476 359.916 76.3311 359.916 74.698V62.5727C359.875 61.2254 359.364 60.5314 358.385 60.4905H356.425C355.323 60.613 354.731 61.3683 354.649 62.7564V74.6368C354.69 76.2698 355.261 77.1068 356.364 77.1476H358.323ZM365.305 81.8018H349.26V60.6742C349.219 60.266 348.974 60.1231 348.525 60.2456L347.545 60.9192L345.341 57.5511C349.872 54.6932 353.73 49.6512 356.915 42.425C357.201 41.486 356.772 40.9756 355.629 40.894H347.79V36.2398H366.897V40.894H365.121C364.345 40.9348 363.733 41.3227 363.284 42.0575L357.099 53.8767C356.609 54.979 356.997 55.5914 358.262 55.7139H365.305V81.8018ZM394.944 56.5712V61.3479H392.189C390.637 61.4295 389.821 62.2869 389.739 63.9199V90.6814H384.473V63.7974C384.432 62.2052 383.697 61.3887 382.268 61.3479H379.451C378.389 61.4295 377.818 62.2461 377.736 63.7974V73.2895C377.736 82.4346 373.674 88.2931 365.55 90.8652L363.651 87.6807C369.734 84.6188 372.674 79.638 372.47 72.7384V64.0424C372.47 62.2461 371.531 61.3479 369.653 61.3479H366.529V56.5712H370.265C371.653 56.5304 372.388 55.7955 372.47 54.3666V42.1188C372.347 41.0165 371.633 40.3632 370.326 40.1591H368.857V35.3825H393.475V40.1591H391.699C390.474 40.2816 389.821 41.0369 389.739 42.425V54.3054C389.902 55.6935 390.739 56.4487 392.25 56.5712H394.944ZM384.473 53.693V42.425C384.432 40.9961 383.799 40.2408 382.574 40.1591H379.696C378.471 40.3632 377.818 41.2206 377.736 42.7312V53.9992C377.859 55.5097 378.492 56.3671 379.635 56.5712H382.942C383.921 56.4487 384.432 55.4893 384.473 53.693Z" stroke="white" stroke-width="1.5"/>
<path d="M424.523 63.1238V57.7348C424.441 56.6325 423.645 56.0609 422.135 56.0201H418.889C417.338 56.0609 416.541 56.7141 416.501 57.9797V63.3688C416.582 64.6752 417.378 65.3693 418.889 65.4509H422.257C423.686 65.3693 424.441 64.5936 424.523 63.1238ZM429.79 51.2434V70.2276H419.195C417.644 70.4317 416.746 71.3095 416.501 72.8608V79.1072C416.296 84.4963 414.031 88.1911 409.703 90.1915L407.56 87.6195C409.968 85.864 411.193 83.0674 411.234 79.2297V45.5482C411.193 44.3234 410.642 43.9559 409.581 44.4459L407.927 39.4243L428.136 33.729L429.728 38.4444L418.766 42.18C417.256 42.7516 416.501 43.6702 416.501 44.9358V48.8551C416.541 50.4065 417.358 51.2026 418.95 51.2434H429.79ZM453.673 37.832V42.6087H439.098C437.71 42.6903 436.955 43.5681 436.832 45.242V54.7953C436.873 56.51 437.689 57.3877 439.282 57.4286H456L455.939 62.2052H452.815C451.387 62.2869 450.611 62.9197 450.488 64.1036V90.9264H445.099V64.2874C444.854 63.1034 443.956 62.4094 442.405 62.2052H439.527C437.853 62.3277 436.955 63.2055 436.832 64.8385V77.8825C436.546 85.2312 433.199 89.5791 426.789 90.9264L425.074 87.9869C429.483 85.5782 431.647 82.2509 431.565 78.0049V37.832H453.673Z" stroke="white" stroke-width="1.5"/>
<path fill-rule="evenodd" clip-rule="evenodd" d="M126 5.42391C126 3.53294 127.441 2 129.218 2H178.782C180.559 2 182 3.53294 182 5.42392V12.3367C182 14.497 180.142 16.1175 178.151 15.6942L162.786 12.4283C160.759 11.9975 158.882 13.6817 158.938 15.8796L160.024 58.0584C160.074 59.9854 158.619 61.5761 156.807 61.5761H150.55C148.738 61.5761 147.283 59.9846 147.333 58.0571L148.416 16.575C148.474 14.3737 146.591 12.6879 144.562 13.1237L129.855 16.2827C127.862 16.7109 126 15.0898 126 12.9266V5.42391Z" fill="url(#paint4_linear)" stroke="white" stroke-width="1.5"/>
<path fill-rule="evenodd" clip-rule="evenodd" d="M119 5.42391C119 3.53294 117.433 2 115.5 2H66.5C64.567 2 63 3.53294 63 5.42391V58.1522C63 60.0432 64.567 61.5761 66.5 61.5761H115.5C117.433 61.5761 119 60.0432 119 58.1522V53.7011C119 51.8101 117.433 50.2772 115.5 50.2772L81.9836 50.2772C78.3571 50.2772 77.1243 45.545 80.3085 43.847L101.733 32.4224C104.404 30.998 104.074 27.1477 101.197 26.1788L84.707 20.6243C80.9716 19.3661 81.8958 13.963 85.8465 13.963L115.5 13.963C117.433 13.963 119 12.4301 119 10.5391V5.42391Z" fill="url(#paint5_linear)" stroke="white" stroke-width="1.5"/>
<path fill-rule="evenodd" clip-rule="evenodd" d="M0 5.42391C0 3.53294 1.567 2 3.5 2H52.5C54.433 2 56 3.53294 56 5.42391V31.9485C56 33.651 54.7212 35.0949 52.9986 35.3375L15.7684 40.5797C13.9546 40.8351 12.6492 42.4158 12.7753 44.2042L13.7419 57.9166C13.8815 59.8956 12.278 61.5761 10.2502 61.5761H3.5C1.567 61.5761 0 60.0432 0 58.1522V5.42391ZM42.1289 27.1124C44.3924 26.7582 45.7026 24.4065 44.7802 22.3537L41.1694 14.3179C40.6108 13.0745 39.3537 12.2717 37.9653 12.2717H15.175C13.1939 12.2717 11.6077 13.8789 11.6772 15.8157L12.1112 27.915C12.1849 29.9721 14.0842 31.501 16.1619 31.1759L42.1289 27.1124Z" fill="url(#paint6_linear)" stroke="white" stroke-width="1.5"/>
<path fill-rule="evenodd" clip-rule="evenodd" d="M63 71.8479C63 69.9569 64.567 68.424 66.5 68.424H115.5C117.433 68.424 119 69.9569 119 71.8479V124.576C119 126.467 117.433 128 115.5 128H109.066C106.94 128 105.305 126.161 105.599 124.102L107.178 113.067C107.473 111.007 105.838 109.169 103.712 109.169H78.817C76.7315 109.169 75.1087 110.942 75.3383 112.969L76.6096 124.199C76.8392 126.227 75.2164 128 73.1309 128H66.5C64.567 128 63 126.467 63 124.576V71.8479ZM103.214 97.1053C105.403 96.7925 106.75 94.5958 106.002 92.559L101.432 80.1259C100.961 78.8418 99.7543 77.9545 98.3623 77.8674L82.1422 76.8524C80.2609 76.7346 78.6223 78.0956 78.4359 79.9306L76.743 96.5912C76.5179 98.8066 78.4799 100.64 80.7317 100.318L103.214 97.1053Z" fill="url(#paint7_linear)" stroke="white" stroke-width="1.5"/>
<path fill-rule="evenodd" clip-rule="evenodd" d="M126 71.8479C126 69.9569 127.51 68.424 129.373 68.424H178.627C180.49 68.424 182 69.9569 182 71.8479V82.6272C182 83.6105 181.583 84.5464 180.856 85.1964L170.496 94.4596C169.047 95.7553 168.964 98.0189 170.313 99.4212L181.04 110.568C181.655 111.207 182 112.066 182 112.96V124.576C182 126.467 180.49 128 178.627 128H129.373C127.51 128 126 126.467 126 124.576V71.8479ZM162.696 85.2661C164.061 82.9843 162.443 80.0653 159.812 80.0653L141.923 80.0652C140.169 80.0652 138.707 81.4302 138.561 83.2048L137.47 96.5L134.241 113.978C133.829 116.206 135.626 118.217 137.851 118.02L156.016 116.407C158.23 116.21 159.655 113.932 158.889 111.815L154.898 100.787C154.544 99.8089 154.648 98.7203 155.181 97.8296L162.696 85.2661Z" fill="url(#paint8_linear)" stroke="white" stroke-width="1.5"/>
<path fill-rule="evenodd" clip-rule="evenodd" d="M14.8046 71.8479C14.8046 69.9569 13.2376 68.424 11.3046 68.424H3.5C1.567 68.424 0 69.9569 0 71.8479V124.576C0 126.467 1.567 128 3.5 128H52.5C54.433 128 56 126.467 56 124.576V115.453C56 113.44 54.235 111.862 52.1865 112.042L18.6181 114.996C16.5696 115.176 14.8046 113.598 14.8046 111.586V71.8479Z" fill="url(#paint9_linear)" stroke="white" stroke-width="1.5"/>
</g>
<defs>
<filter id="filter0_d" x="-4.75" y="0.25" width="465.51" height="135.5" filterUnits="userSpaceOnUse" color-interpolation-filters="sRGB">
<feFlood flood-opacity="0" result="BackgroundImageFix"/>
<feColorMatrix in="SourceAlpha" type="matrix" values="0 0 0 0 0 0 0 0 0 0 0 0 0 0 0 0 0 0 127 0"/>
<feOffset dy="3"/>
<feGaussianBlur stdDeviation="2"/>
<feColorMatrix type="matrix" values="0 0 0 0 0.245805 0 0 0 0 0.13603 0 0 0 0 0.0297121 0 0 0 0.2 0"/>
<feBlend mode="normal" in2="BackgroundImageFix" result="effect1_dropShadow"/>
<feBlend mode="normal" in="SourceGraphic" in2="effect1_dropShadow" result="shape"/>
</filter>
<linearGradient id="paint0_linear" x1="340.38" y1="33.729" x2="340.38" y2="90.9264" gradientUnits="userSpaceOnUse">
<stop offset="0.703074" stop-color="#C0A097"/>
</linearGradient>
<linearGradient id="paint1_linear" x1="340.38" y1="33.729" x2="340.38" y2="90.9264" gradientUnits="userSpaceOnUse">
<stop offset="0.703074" stop-color="#C0A097"/>
</linearGradient>
<linearGradient id="paint2_linear" x1="340.38" y1="33.729" x2="340.38" y2="90.9264" gradientUnits="userSpaceOnUse">
<stop offset="0.703074" stop-color="#C0A097"/>
</linearGradient>
<linearGradient id="paint3_linear" x1="340.38" y1="33.729" x2="340.38" y2="90.9264" gradientUnits="userSpaceOnUse">
<stop offset="0.703074" stop-color="#C0A097"/>
</linearGradient>
<linearGradient id="paint4_linear" x1="154" y1="2" x2="154" y2="61.5761" gradientUnits="userSpaceOnUse">
<stop offset="0.703074" stop-color="#C0A097"/>
</linearGradient>
<linearGradient id="paint5_linear" x1="91" y1="2" x2="91" y2="61.5761" gradientUnits="userSpaceOnUse">
<stop offset="0.703074" stop-color="#C0A097"/>
</linearGradient>
<linearGradient id="paint6_linear" x1="28" y1="2" x2="28" y2="61.5761" gradientUnits="userSpaceOnUse">
<stop offset="0.703074" stop-color="#C0A097"/>
</linearGradient>
<linearGradient id="paint7_linear" x1="91" y1="68.424" x2="91" y2="128" gradientUnits="userSpaceOnUse">
<stop offset="0.703074" stop-color="#C0A097"/>
</linearGradient>
<linearGradient id="paint8_linear" x1="154" y1="68.424" x2="154" y2="128" gradientUnits="userSpaceOnUse">
<stop offset="0.703074" stop-color="#C0A097"/>
</linearGradient>
<linearGradient id="paint9_linear" x1="28" y1="68.424" x2="28" y2="128" gradientUnits="userSpaceOnUse">
<stop offset="0.703074" stop-color="#C0A097"/>
</linearGradient>
</defs>
</svg>