<svg width="115" height="72" viewBox="0 0 115 72" fill="none" xmlns="http://www.w3.org/2000/svg">
<g clip-path="url(#clip0)">
<line x1="115.346" x2="-0.499794" y2="-1.0117e-05" stroke="#90807B"/>
<line x1="115.346" y1="14.3849" x2="-0.499924" y2="14.3849" stroke="#90807B"/>
<line x1="115.346" y1="28.7698" x2="-0.499924" y2="28.7698" stroke="#90807B"/>
<line x1="115.346" y1="43.1544" x2="-0.499809" y2="43.1544" stroke="#90807B"/>
<line x1="115.346" y1="57.5392" x2="-0.499809" y2="57.5392" stroke="#90807B"/>
<line x1="115.346" y1="71.924" x2="-0.499687" y2="71.924" stroke="#90807B"/>
<line x1="71.8271" y1="72.4999" x2="71.8272" y2="-0.499954" stroke="#90807B"/>
<line x1="57.4613" y1="72.4999" x2="57.4613" y2="-0.499962" stroke="#90807B"/>
<line x1="43.0956" y1="72.4999" x2="43.0956" y2="-0.499962" stroke="#90807B"/>
<line x1="28.73" y1="72.4999" x2="28.73" y2="-0.499962" stroke="#90807B"/>
<line x1="14.3644" y1="72.4999" x2="14.3644" y2="-0.499962" stroke="#90807B"/>
<line x1="-0.00134277" y1="72.5" x2="-0.00133316" y2="-0.49984" stroke="#90807B"/>
<line x1="115" y1="72.4998" x2="115" y2="-0.500023" stroke="#90807B"/>
<line x1="100.634" y1="72.4999" x2="100.634" y2="-0.499962" stroke="#90807B"/>
<line x1="86.2688" y1="72.4999" x2="86.2688" y2="-0.499962" stroke="#90807B"/>
</g>
<defs>
<clipPath id="clip0">
<rect width="115" height="72" fill="white"/>
</clipPath>
</defs>
</svg>
